<?xml version="1.0" encoding="UTF-8"?>
<svg width="42px" height="76px" viewBox="0 0 42 76" version="1.1" xmlns="http://www.w3.org/2000/svg" xmlns:xlink="http://www.w3.org/1999/xlink">
    <title>Group</title>
    <g id="Pages" stroke="none" stroke-width="1" fill="none" fill-rule="evenodd">
        <g id="Home03a" transform="translate(-142.000000, -1297.000000)">
            <g id="Group-25" transform="translate(0.000000, 1285.000000)">
                <g id="Group-30" transform="translate(113.000000, 0.000000)">
                    <g id="Group" transform="translate(30.000000, 13.000000)">
                        <g id="Group-28-Copy" transform="translate(8.000000, 35.000000)" fill="#D0B17D">
                            <path d="M25,0 L0,0 C0.71768886,8.26230986 4.83001575,14.8750423 10.1162838,16.4272676 L10.1162838,19.0242254 C9.07053741,19.6903662 8.38716841,20.7792676 8.38716841,22.0123944 C8.38716841,23.2464225 9.07053741,24.3353239 10.1162838,25.0014648 L10.1162838,29.6896901 C10.1162838,31.6899155 8.70816005,33.4539718 6.61565793,34.1660845 C3.21193524,35.3261972 0.71768886,37.4607324 0.0121128922,40 L24.9868777,40 C24.2722171,37.4264789 21.7214439,35.2694085 18.2470626,34.1210141 C16.2393507,33.4575775 14.902895,31.7530141 14.902895,29.8411268 L14.902895,24.9888451 C15.9365284,24.3218028 16.6118222,23.2392113 16.6118222,22.0123944 C16.6118222,20.7864789 15.9365284,19.7038873 14.902895,19.0368451 L14.902895,16.4209577 C20.1800783,14.8588169 24.2833205,8.25149296 25,0" id="Fill-26"></path>
                        </g>
                        <path d="M20.3588147,0.00713622887 C20.2954099,0.019268918 20.2328091,0.0357198258 20.1714016,0.0563866318 C19.4733987,0.222162507 18.9831271,0.887349577 19.0004446,1.64510931 L19.0004446,6.41127733 C19.0004446,7.28870463 19.6717062,8 20.4997494,8 C21.3277926,8 21.9990542,7.28870463 21.9990542,6.41127733 L21.9990542,1.64510931 C22.0143703,1.18806454 21.8430716,0.746193546 21.5289797,0.432535573 C21.2148877,0.118877601 20.7884708,-0.0361411215 20.3588147,0.00713622887 L20.3588147,0.00713622887 Z" id="Icon-Path" stroke="#FFFFFF" fill="#D0B17D" fill-rule="nonzero"></path>
                        <path d="M11.2225022,3.01903279 C10.7516424,3.09038384 10.3454282,3.40693638 10.1398439,3.86272117 C9.93425961,4.31850597 9.95647261,4.85329241 10.1990469,5.28805523 L12.3342109,9.25884451 C12.7356099,9.97056746 13.5988669,10.2105454 14.2768014,9.79886787 C14.9547358,9.3871903 15.1984515,8.47500012 14.8252356,7.74616288 L12.6900716,3.7753736 C12.3987737,3.22088846 11.8125903,2.91878732 11.2225022,3.01903279 L11.2225022,3.01903279 Z" id="Icon-Path" stroke="#FFFFFF" fill="#D0B17D" fill-rule="nonzero"></path>
                        <path d="M29.2902369,3.00860431 C28.8743709,3.09382441 28.5157251,3.37142318 28.311617,3.76607498 L26.1748921,7.74279599 C25.8014034,8.47272201 26.0452973,9.38627486 26.7237273,9.79856741 C27.4021573,10.21086 28.2660454,9.97052349 28.6677378,9.25773733 L30.8044626,5.28101632 C31.0764025,4.78758563 31.0638648,4.1733391 30.7720474,3.69292337 C30.4802299,3.21250763 29.9588823,2.94782501 29.4241384,3.00860431 C29.3800033,3.00641934 29.3357965,3.00641934 29.2916614,3.00860431 L29.2902369,3.00860431 Z" id="Icon-Path" stroke="#FFFFFF" fill="#D0B17D" fill-rule="nonzero"></path>
                        <path d="M36.2631033,10.0212777 C36.2159587,10.0336588 36.1694869,10.0482559 36.1238584,10.0650153 C35.9440543,10.0934431 35.7713023,10.1532315 35.6142813,10.2413769 L31.7257937,12.3577152 C31.0288225,12.755575 30.7938185,13.6112207 31.1969633,14.2831778 C31.6001081,14.9551349 32.4933915,15.1967017 33.2071223,14.8267765 L37.0956099,12.7104382 C37.7892754,12.4309146 38.1522863,11.7001186 37.9392678,11.012027 C37.7262493,10.3239354 37.0050257,9.89763372 36.2631033,10.0212777 L36.2631033,10.0212777 Z" id="Icon-Path" stroke="#FFFFFF" fill="#D0B17D" fill-rule="nonzero"></path>
                        <path d="M4.31649158,10.0164618 C3.66534209,10.0948835 3.1428056,10.5628797 3.02468649,11.1734334 C2.90656738,11.783987 3.22004769,12.3965952 3.79966672,12.6879121 L7.75495902,14.8250723 C8.4809518,15.198637 9.38958194,14.9546935 9.79965284,14.2761253 C10.2097237,13.597557 9.97068233,12.733493 9.26173704,12.3317187 L5.30644474,10.1945585 C5.00827925,10.0298463 4.65932881,9.96697297 4.31799836,10.0164618 L4.31649158,10.0164618 Z" id="Icon-Path" stroke="#FFFFFF" fill="#D0B17D" fill-rule="nonzero"></path>
                        <path d="M20.5,10 C16.7487115,10 13.2823777,12.0012886 11.4067333,15.2499999 C9.5310889,18.4987113 9.5310889,22.5012887 11.4067333,25.7500001 C13.2823777,28.9987114 16.7487115,31 20.5,31 C26.29899,31 31,26.2989898 31,20.5 C31,14.7010102 26.29899,10 20.5,10 L20.5,10 Z" id="Icon-Path" fill="#D0B17D" fill-rule="nonzero"></path>
                        <path d="M1.35048078,19.0016486 C0.492637285,19.1174029 -0.105075813,19.8791222 0.0154511986,20.7029963 C0.13597821,21.5268704 0.929104204,22.1009149 1.7869477,21.9851607 L6.44673693,21.9851607 C7.30458043,21.9851607 8,21.3172787 8,20.4934046 C8,19.6695305 7.30458043,19.0016486 6.44673693,19.0016486 L1.7869477,19.0016486 C1.7383057,18.9994505 1.68958298,18.9994505 1.64094097,19.0016486 C1.59229892,18.9994527 1.5435763,18.9994527 1.49493424,19.0016486 C1.44680894,18.9995056 1.39860608,18.9995056 1.35048078,19.0016486 L1.35048078,19.0016486 Z" id="Icon-Path" stroke="#FFFFFF" fill="#D0B17D" fill-rule="nonzero"></path>
                        <path d="M33.3504808,19.0016486 C32.4926373,19.1174029 31.8949242,19.8791222 32.0154512,20.7029963 C32.1359782,21.5268704 32.9291042,22.1009149 33.7869477,21.9851607 L38.4467369,21.9851607 C39.3045804,21.9851607 40,21.3172787 40,20.4934046 C40,19.6695305 39.3045804,19.0016486 38.4467369,19.0016486 L33.7869477,19.0016486 C33.7383057,18.9994505 33.689583,18.9994505 33.640941,19.0016486 C33.5928158,18.9994992 33.5446127,18.9994992 33.4964875,19.0016486 C33.4478453,18.9994592 33.399123,18.9994592 33.3504808,19.0016486 L33.3504808,19.0016486 Z" id="Icon-Path" stroke="#FFFFFF" fill="#D0B17D" fill-rule="nonzero"></path>
                        <path d="M8.26082743,26.0217034 C8.21419016,26.0341277 8.16822069,26.0487232 8.12308467,26.0654373 C7.94330775,26.0938626 7.77058187,26.1536459 7.61358457,26.2417837 L3.72568413,28.3579411 C3.02881815,28.7557669 2.79384962,29.6113394 3.19693356,30.2832391 C3.60001751,30.9551388 4.49316604,31.1966849 5.20678906,30.8267913 L9.0946895,28.710634 C9.78913168,28.4313822 10.1526094,27.6998739 9.93907326,27.01129 C9.72553708,26.3227062 9.00311076,25.8967236 8.26082743,26.0217034 Z" id="Icon-Path" stroke="#FFFFFF" fill="#D0B17D" fill-rule="nonzero"></path>
                        <path d="M32.3177629,26.0164618 C31.6663549,26.0944021 31.143315,26.5622064 31.024828,27.1728562 C30.9063409,27.7835061 31.2196878,28.3964021 31.7994097,28.6879121 L35.754866,30.8250723 C36.4808888,31.198637 37.3895566,30.9546935 37.7996445,30.2761253 C38.2097324,29.597557 37.9706811,28.733493 37.2617064,28.3317187 L33.3062502,26.1945585 C33.0080724,26.0298463 32.6591075,25.966973 32.3177629,26.0164618 L32.3177629,26.0164618 Z" id="Icon-Path" stroke="#FFFFFF" fill="#D0B17D" fill-rule="nonzero"></path>
                        <path d="M14.5,16 L14.5,16.2737643 L14.437669,16.2793513 C14.3225965,16.3016994 14.2650602,16.3910918 14.2650602,16.5475285 L14.2650602,16.5475285 L14.2650602,23.4524715 L14.2698549,23.5251028 C14.2890337,23.6591914 14.3657487,23.7262357 14.5,23.7262357 L14.5,23.7262357 L14.5,24 L13,24 L13,23.7262357 L13.062331,23.7206487 C13.1774035,23.6983006 13.2349398,23.6089082 13.2349398,23.4524715 L13.2349398,23.4524715 L13.2349398,16.5475285 L13.2301451,16.4748972 C13.2109663,16.3408086 13.1342513,16.2737643 13,16.2737643 L13,16.2737643 L13,16 L14.5,16 Z M17.5434412,16 L17.5434412,16.2737643 C17.4957411,16.2737643 17.4531516,16.2965779 17.4156729,16.3422053 C17.3781942,16.3878327 17.3594549,16.4562738 17.3594549,16.5475285 L17.3594549,16.5475285 L17.3594549,18.9045084 L18.9741029,19.9330798 L20.6507666,18.9045084 L20.6507666,16.5475285 C20.6507666,16.365019 20.5758092,16.2737643 20.4258944,16.2737643 L20.4258944,16.2737643 L20.4258944,16 L22,16 L22,16.2737643 C21.9522998,16.2737643 21.9097104,16.2965779 21.8722317,16.3422053 C21.834753,16.3878327 21.8160136,16.4562738 21.8160136,16.5475285 L21.8160136,16.5475285 L21.8160136,23.4524715 C21.8160136,23.5437262 21.834753,23.6121673 21.8722317,23.6577947 C21.9097104,23.7034221 21.9522998,23.7262357 22,23.7262357 L22,23.7262357 L22,24 L20.4258944,24 L20.4258944,23.7262357 C20.5758092,23.7262357 20.6507666,23.634981 20.6507666,23.4524715 L20.6507666,23.4524715 L20.6507666,19.9074416 L18.9567667,20.936013 L17.3594549,19.9074416 L17.3594549,23.4524715 C17.3594549,23.5437262 17.3781942,23.6121673 17.4156729,23.6577947 C17.4531516,23.7034221 17.4957411,23.7262357 17.5434412,23.7262357 L17.5434412,23.7262357 L17.5434412,24 L16,24 L16,23.7262357 C16.1294719,23.7262357 16.1942078,23.634981 16.1942078,23.4524715 L16.1942078,23.4524715 L16.1942078,16.5475285 C16.1942078,16.365019 16.1294719,16.2737643 16,16.2737643 L16,16.2737643 L16,16 L17.5434412,16 Z M25.6302281,16 C25.9325095,16 26.1948669,16.0398754 26.4173004,16.1196262 C26.6397338,16.1993769 26.8322243,16.2841121 26.9947719,16.3738318 C27.1573194,16.4635514 27.2942015,16.5482866 27.4054183,16.6280374 C27.516635,16.7077882 27.6093156,16.7476636 27.6834601,16.7476636 C27.763308,16.7476636 27.8203422,16.717757 27.8545627,16.6579439 L27.8545627,16.6579439 L27.9572243,16.7775701 L27.3669202,18.646729 L27.2813688,18.5869159 L27.2661597,18.4556594 C27.2534854,18.3736933 27.2357414,18.3028037 27.2129278,18.2429907 C27.1673004,18.1233645 27.09173,18.0062305 26.9862167,17.8915888 C26.8807034,17.776947 26.756654,17.6747664 26.6140684,17.5850467 C26.4714829,17.4953271 26.3174905,17.423053 26.1520913,17.3682243 C25.986692,17.3133956 25.8212928,17.2859813 25.6558935,17.2859813 C25.5304183,17.2859813 25.4006654,17.3034268 25.266635,17.3383178 C25.1326046,17.3732087 25.0114068,17.4255452 24.9030418,17.4953271 C24.7946768,17.565109 24.7048479,17.6573209 24.6335551,17.7719626 C24.5622624,17.8866044 24.526616,18.0286604 24.526616,18.1981308 C24.526616,18.4373832 24.5765209,18.6168224 24.6763308,18.7364486 C24.7761407,18.8560748 24.9073194,18.9457944 25.0698669,19.0056075 C25.2324144,19.0654206 25.4177757,19.105296 25.6259506,19.1252336 C25.8341255,19.1451713 26.0465779,19.1700935 26.263308,19.2 C26.480038,19.2299065 26.6924905,19.282243 26.9006654,19.3570093 C27.1088403,19.4317757 27.2942015,19.5514019 27.456749,19.7158879 C27.6192966,19.8803738 27.7504753,20.1021807 27.8502852,20.3813084 C27.9500951,20.6604361 28,21.0242991 28,21.4728972 C28,21.9912773 27.9215779,22.4149533 27.7647338,22.7439252 C27.6078897,23.0728972 27.4125475,23.3320872 27.1787072,23.5214953 C26.9448669,23.7109034 26.6924905,23.8380062 26.4215779,23.9028037 C26.1506654,23.9676012 25.898289,24 25.6644487,24 C25.3393536,24 25.0670152,23.9676012 24.8474335,23.9028037 C24.6278517,23.8380062 24.4453422,23.7582555 24.2999049,23.6635514 C24.1544677,23.5688474 24.0389734,23.4841121 23.9534221,23.4093458 C23.8678707,23.3345794 23.7937262,23.2971963 23.7309886,23.2971963 C23.6910646,23.2971963 23.6539924,23.3370717 23.6197719,23.4168224 L23.6197719,23.4168224 L23.5,23.2971963 L23.9705323,21.4878505 L24.0560837,21.5626168 L24.0598859,21.6490135 C24.0649556,21.704396 24.0750951,21.7553479 24.0903042,21.8018692 C24.1302281,21.9214953 24.2086502,22.0386293 24.3255703,22.153271 C24.4424905,22.2679128 24.5765209,22.3700935 24.7276616,22.4598131 C24.8788023,22.5495327 25.0370722,22.6218069 25.2024715,22.6766355 C25.3678707,22.7314642 25.5161597,22.7588785 25.6473384,22.7588785 C25.7442966,22.7588785 25.8697719,22.7464174 26.0237643,22.7214953 C26.1777567,22.6965732 26.3288973,22.6442368 26.4771863,22.564486 C26.6254753,22.4847352 26.7538023,22.3750779 26.8621673,22.235514 C26.9705323,22.0959502 27.0247148,21.9115265 27.0247148,21.682243 C27.0247148,21.4529595 26.9748099,21.2834891 26.875,21.1738318 C26.7751901,21.0641745 26.6440114,20.9844237 26.4814639,20.9345794 C26.3189163,20.8847352 26.1335551,20.8523364 25.9253802,20.8373832 C25.7172053,20.8224299 25.5047529,20.8 25.2880228,20.7700935 C25.0712928,20.7401869 24.8588403,20.6903427 24.6506654,20.6205607 C24.4424905,20.5507788 24.2571293,20.4336449 24.0945817,20.2691589 C23.9320342,20.1046729 23.8008555,19.8803738 23.7010456,19.5962617 C23.6012357,19.3121495 23.5513308,18.94081 23.5513308,18.482243 C23.5513308,18.1732087 23.5926806,17.8691589 23.6753802,17.5700935 C23.7580798,17.271028 23.884981,17.0068536 24.0560837,16.7775701 C24.2271863,16.5482866 24.4439163,16.3613707 24.7062738,16.2168224 C24.9686312,16.0722741 25.276616,16 25.6302281,16 Z" id="Combined-Shape" fill="#FFFFFF" fill-rule="nonzero"></path>
                    </g>
                </g>
            </g>
        </g>
    </g>
</svg>