<svg width="21" height="35" viewBox="0 0 21 35" fill="none" xmlns="http://www.w3.org/2000/svg">
<path d="M7.66848 1.91212C9.42375 0.733494 11.6235 0.226473 13.8514 0.646305C16.091 1.10187 17.9176 2.40242 19.0857 4.13718C20.2662 5.89038 20.774 8.08755 20.3537 10.3115L16.8286 27.8344C16.453 29.7927 15.4297 31.4586 14.0008 32.6354C12.5728 33.8115 10.7386 34.5 8.73698 34.5C8.3374 34.5 7.88442 34.448 7.46346 34.3842C5.07153 33.9049 3.18619 32.6088 1.98197 30.8927C0.741737 29.1254 0.222585 26.9105 0.646269 24.6682L4.17256 7.1396C4.6288 4.90301 5.93114 3.07871 7.66848 1.91212Z" fill="#F5F6EF" stroke="#F6F6EF"/>
</svg>
